<svg id="Capa_1" enable-background="new 0 0 512 512" height="512" viewBox="0 0 512 512" width="512" xmlns="http://www.w3.org/2000/svg"><g><g><path d="m245 11c-9.788 0-19.436.589-28.923 1.708l-9.971 17.101-36.465-6.976c-66.274 21.406-120.209 70.265-148.371 133.192v49.975l-21.27 50c0 14.205 1.224 28.123 3.545 41.667l17.725 20-7.31 20c5.151 14.571 11.636 28.509 19.317 41.667l53.993 64.089c7.495 6.313 15.354 12.207 23.577 17.598l134.153 39.979c135.31 0 245-109.69 245-245s-109.69-245-245-245z" fill="#543e5b"/></g><g><circle cx="245" cy="226" fill="#45304c" r="190"/></g><g><path d="m27.4 176-20 20c-1.653 6.566-3.038 13.24-4.148 20.007l.016-.007 20 20h468.732v-60z" fill="#91af12"/></g><g><path d="m320.637 246-27.352 225h40.295l27.352-225z" fill="#91af12"/></g><g><path d="m63.363 246h-40.295l17.662 145.293h21.674v28.035c7.742 8.649 16.087 16.745 24.973 24.222z" fill="#91af12"/></g><g><path d="m221.579 246-9.118 225h40.033l9.117-225z" fill="#91af12"/></g><g><path d="m122.389 246 9.117 225h40.033l-9.118-225z" fill="#91af12"/></g><g><path d="m13.96 337.667h415.593v-40h-426.008c2.357 13.76 5.864 27.125 10.415 40z" fill="#ccde3d"/></g><g><path d="m124.483 297.667h-120.938c2.358 13.76 5.865 27.126 10.416 40h110.522c-11.046 0-20-8.954-20-20s8.954-20 20-20z" fill="#afc728"/></g><g><path d="m62.405 419.333h343.404v-40h-372.532c8.362 14.323 18.134 27.718 29.128 40z" fill="#ccde3d"/></g><g><path d="m127.792 379.333h-94.515c8.361 14.323 18.134 27.718 29.128 40h65.387c-11.046 0-20-8.954-20-20 0-11.045 8.954-20 20-20z" fill="#afc728"/></g><g><path d="m419.569 246-37.069 182.94c-3.76 18.58-20.25 32.06-39.2 32.06h-232.52c38.55 25.29 84.66 40 134.22 40h98.3c37.9 0 70.88-26.96 78.41-64.11l2.89-14.26 35.779-176.63z" fill="#afc728"/></g><g><path d="m283.69 497.96c3.07 1.93 6.7 3.04 10.59 3.04h-49.28c-49.56 0-95.67-14.71-134.22-40h183.5c-11.05 0-20 8.95-20 20 0 7.16 3.76 13.43 9.41 16.96z" fill="#91af12"/></g><g><path d="m512 236c0 5.52-2.24 10.52-5.86 14.14s-8.62 5.86-14.14 5.86h-492c0-13.62 1.11-26.98 3.25-40h488.75c11.05 0 20 8.95 20 20z" fill="#ccde3d"/></g><g><path d="m512 176c0 5.52-2.24 10.52-5.86 14.14s-8.62 5.86-14.14 5.86h-484.6c3.48-13.84 8.14-27.21 13.87-40h470.73c11.05 0 20 8.95 20 20z" fill="#ccde3d"/></g><g><path d="m102.362 236c0-11.046 8.954-20 20-20h-119.094c-2.138 13.018-3.268 26.376-3.268 40h122.362c-11.046 0-20-8.954-20-20z" fill="#afc728"/></g><g><path d="m102.362 176c0-11.046 8.954-20 20-20h-101.092c-5.73 12.79-10.39 26.16-13.87 40h114.962c-11.046 0-20-8.954-20-20z" fill="#afc728"/></g><g><circle cx="381.085" cy="206" fill="#deeeff" r="40"/></g><g><path d="m216.077 12.708c-16.006 1.883-31.537 5.307-46.446 10.123l197.312 197.312c7.81 7.811 20.474 7.811 28.284 0 7.81-7.81 7.81-20.474 0-28.284z" fill="#ccde3d"/></g><g><g><path d="m168.953 22.152 103.706 103.707z" fill="#91af12"/></g><g><path d="m395.227 191.858-94.284-94.284c7.81 7.81 7.81 20.474 0 28.284-7.81 7.81-20.474 7.81-28.284 0l94.284 94.283c7.81 7.811 20.474 7.811 28.284 0 7.811-7.809 7.811-20.473 0-28.283z" fill="#afc728"/></g></g></g></svg>